<svg width="108" height="64" viewBox="0 0 108 64" fill="none" xmlns="http://www.w3.org/2000/svg">
<path d="M106.996 64C107.548 64 108 63.5585 108 63.0219V0.978306C108 0.441815 107.548 0 106.996 0H61.0002C60.4521 0 60 0.441815 60 0.978306V63.0219C60 63.5585 60.4521 64 61.0002 64H106.996Z" fill="#05C770"/>
<path d="M46.9972 0H32.6684C32.1185 0 31.6657 0.441815 31.6657 0.978306V23.858H16.3342V0.978306C16.3342 0.441815 15.8814 0 15.3315 0H1.00269C0.452829 0 0 0.441815 0 0.978306V63.0219C0 63.5585 0.452829 64 1.00269 64H15.2992C15.849 64 16.3018 63.5585 16.3018 63.0219V38.1223H31.6333V63.0219C31.6333 63.5585 32.0862 64 32.6361 64H46.9972C47.5472 64 48 63.5585 48 63.0219V0.978306C48 0.441815 47.5472 0 46.9972 0Z" fill="white"/>
</svg>
